HIERARCHY
ROOT Hips
{
	OFFSET 0.000000 0.000000 0.000000
	CHANNELS 6 Xposition Yposition Zposition Zrotation Yrotation Xrotation 
	JOINT LHipJoint
	{
		OFFSET 0.000000 0.000000 0.000000
		CHANNELS 3 Zrotation Yrotation Xrotation
		JOINT LeftUpLeg
		{
			OFFSET 1.363060 -1.794630 0.839290
			CHANNELS 3 Zrotation Yrotation Xrotation
			JOINT LeftLeg
			{
				OFFSET 2.448110 -6.726130 0.000000
				CHANNELS 3 Zrotation Yrotation Xrotation
				JOINT LeftFoot
				{
					OFFSET 2.562200 -7.039590 0.000000
					CHANNELS 3 Zrotation Yrotation Xrotation
					JOINT LeftToeBase
					{
						OFFSET 0.157640 -0.433110 2.322550
						CHANNELS 3 Zrotation Yrotation Xrotation
						End Site
						{
							OFFSET 0.000000 0.000000 0.000000
						}
					}
				}
			}
		}
	}
	JOINT RHipJoint
	{
		OFFSET 0.000000 0.000000 0.000000
		CHANNELS 3 Zrotation Yrotation Xrotation
		JOINT RightUpLeg
		{
			OFFSET -1.305520 -1.794630 0.839290
			CHANNELS 3 Zrotation Yrotation Xrotation
			JOINT RightLeg
			{
				OFFSET -2.542530 -6.985550 0.000000
				CHANNELS 3 Zrotation Yrotation Xrotation
				JOINT RightFoot
				{
					OFFSET -2.568260 -7.056230 0.000000
					CHANNELS 3 Zrotation Yrotation Xrotation
					JOINT RightToeBase
					{
						OFFSET -0.164730 -0.452590 2.363150
						CHANNELS 3 Zrotation Yrotation Xrotation
						End Site
						{
							OFFSET 0.000000 0.000000 0.000000
						}
					}
				}
			}
		}
	}
	JOINT LowerBack
	{
		OFFSET 0.000000 0.000000 0.000000
		CHANNELS 3 Zrotation Yrotation Xrotation
		JOINT Spine
		{
			OFFSET 0.028270 2.035590 -0.193380
			CHANNELS 3 Zrotation Yrotation Xrotation
			JOINT Spine1
			{
				OFFSET 0.056720 2.048850 -0.042750
				CHANNELS 3 Zrotation Yrotation Xrotation
				JOINT Neck
				{
					OFFSET 0.000000 0.000000 0.000000
					CHANNELS 3 Zrotation Yrotation Xrotation
					JOINT Neck1
					{
						OFFSET -0.054170 1.746240 0.172020
						CHANNELS 3 Zrotation Yrotation Xrotation
						JOINT Head
						{
							OFFSET 0.104070 1.761360 -0.123970
							CHANNELS 3 Zrotation Yrotation Xrotation
							End Site
							{
								OFFSET 0.000000 0.000000 0.000000
							}
						}
					}
				}
				JOINT LeftShoulder
				{
					OFFSET 0.000000 0.000000 0.000000
					CHANNELS 3 Zrotation Yrotation Xrotation
					JOINT LeftArm
					{
						OFFSET 3.362410 1.200890 -0.311210
						CHANNELS 3 Zrotation Yrotation Xrotation
						JOINT LeftForeArm
						{
							OFFSET 4.983000 -0.000000 -0.000000
							CHANNELS 3 Zrotation Yrotation Xrotation
							JOINT LeftHand
							{
								OFFSET 3.483560 -0.000000 -0.000000
								CHANNELS 3 Zrotation Yrotation Xrotation
								JOINT LeftFingerBase
								{
									OFFSET 0.000000 0.000000 0.000000
									CHANNELS 3 Zrotation Yrotation Xrotation
									JOINT LeftHandIndex1
									{
										OFFSET 0.715260 -0.000000 -0.000000
										CHANNELS 3 Zrotation Yrotation Xrotation
										End Site
										{
											OFFSET 0.000000 0.000000 0.000000
										}
									}
								}
								JOINT LThumb
								{
									OFFSET 0.000000 0.000000 0.000000
									CHANNELS 3 Zrotation Yrotation Xrotation
									End Site
									{
										OFFSET 0.000000 0.000000 0.000000
									}
								}
							}
						}
					}
				}
				JOINT RightShoulder
				{
					OFFSET 0.000000 0.000000 0.000000
					CHANNELS 3 Zrotation Yrotation Xrotation
					JOINT RightArm
					{
						OFFSET -3.136600 1.374050 -0.404650
						CHANNELS 3 Zrotation Yrotation Xrotation
						JOINT RightForeArm
						{
							OFFSET -5.241900 -0.000000 -0.000000
							CHANNELS 3 Zrotation Yrotation Xrotation
							JOINT RightHand
							{
								OFFSET -3.444170 -0.000000 -0.000000
								CHANNELS 3 Zrotation Yrotation Xrotation
								JOINT RightFingerBase
								{
									OFFSET 0.000000 0.000000 0.000000
									CHANNELS 3 Zrotation Yrotation Xrotation
									JOINT RightHandIndex1
									{
										OFFSET -0.622530 -0.000000 -0.000000
										CHANNELS 3 Zrotation Yrotation Xrotation
										End Site
										{
											OFFSET 0.000000 0.000000 0.000000
										}
									}
								}
								JOINT RThumb
								{
									OFFSET 0.000000 0.000000 0.000000
									CHANNELS 3 Zrotation Yrotation Xrotation
									End Site
									{
										OFFSET 0.000000 0.000000 0.000000
									}
								}
							}
						}
					}
				}
			}
		}
	}
}
MOTION
Frames: 4
Frame Time: 0.008333
-31.730593 17.401139 0.148398 175.984861 88.326276 177.429879 -0.916258 -4.124722 -1.919177 -18.817974 -2.991509 -7.376467 1.682687 13.081200 33.350677 -1.420079 11.545541 -22.618265 0.141000 2.419900 6.667500 -5.823410 2.813255 -4.833649 18.917894 4.276771 -1.237413 -1.837358 -11.562146 29.799995 0.218254 -17.749048 -32.094643 -0.192400 -2.824800 7.791400 -0.891613 2.891551 -3.640507 0.404941 3.108826 -0.946014 1.986449 1.663600 8.045910 3.306950 12.624236 -9.596958 2.003012 17.549027 14.376379 -1.065000 8.559100 13.177400 -7.741877 -2.624757 -0.220345 -76.226842 -7.881267 14.904330 4.629265 -17.450398 -1.609559 -1.053681 0.363100 -9.583195 23.470601 -12.662776 -5.903000 -7.125000 0.000000 0.000000 -1.982200 15.597900 1.377100 12.070462 2.414986 -0.818750 68.608860 -2.276936 13.898704 -8.563188 20.674671 -2.941797 1.299660 0.946478 -0.312552 -7.065422 -27.162850 3.950000 7.125000 0.000000 0.000000 24.062200 -56.591500 -7.123500 
-31.728567 17.401459 0.171532 175.582794 87.976450 177.204278 -0.916018 -4.138744 -1.943990 -18.760886 -3.351026 -7.472169 1.649678 13.046045 33.215476 -1.495338 11.755847 -22.497230 0.120600 2.238600 6.165400 -5.826471 2.826346 -4.807789 19.131650 4.846833 -1.144706 -1.831164 -11.600874 29.869004 0.141540 -18.047552 -33.029253 -0.261800 -3.291900 9.092400 -0.796764 2.963638 -3.845576 0.400219 3.188118 -0.926956 1.863027 1.710638 8.099092 3.916548 13.463257 -9.428120 2.035744 18.657486 14.380869 -1.016500 9.102000 13.290800 -7.739704 -2.610331 -0.157830 -76.294299 -7.548984 14.746255 3.876532 -16.420544 -1.371680 -0.969255 0.247430 -4.044227 21.260575 -8.650690 -3.626600 -7.125000 0.000000 0.000000 -3.376900 20.354800 1.994900 12.120685 2.378475 -0.789018 68.467721 -2.348055 14.835994 -8.876563 21.082085 -3.031028 1.293785 0.963939 -1.126225 -7.283723 -27.128880 4.053100 7.125000 0.000000 0.000000 23.811800 -56.603600 -7.050500 
-31.726009 17.404124 0.196584 170.139431 87.750162 171.848929 -0.879441 -4.063869 -1.928408 -18.926667 -3.476879 -7.543784 1.611602 13.037483 33.080907 -1.520639 11.768509 -22.297927 0.117700 2.211500 6.090500 -5.780975 2.929885 -4.837520 19.098435 5.335978 -0.934395 -1.845717 -11.612535 29.969652 0.064710 -18.326771 -33.880661 -0.301100 -3.528000 9.752300 -0.853707 3.095822 -3.928470 0.345333 3.365558 -0.898077 1.681563 1.826728 8.082385 4.606899 14.246373 -9.085227 1.984028 19.626970 14.220408 -1.048800 9.594300 13.273800 -7.742062 -2.590753 -0.107465 -76.247759 -7.186962 16.334200 3.712847 -16.287664 -1.303624 -0.980098 -0.117014 -0.600080 19.396340 -0.471944 -0.132400 -7.125000 0.000000 0.000000 -4.855700 29.583200 1.831400 12.135673 2.356839 -0.743666 68.499720 -2.402299 15.411770 -9.141856 21.422189 -3.118696 1.299007 0.973470 -1.885899 -7.707963 -27.300496 4.286200 7.125000 0.000000 0.000000 23.482200 -56.837400 -7.080300 
-31.717906 17.405724 0.222597 165.609223 87.613995 167.339900 -0.834516 -4.002394 -1.914642 -19.083994 -3.463178 -7.523671 1.587929 13.031116 32.992637 -1.487225 11.613052 -22.183346 0.131100 2.334000 6.429600 -5.734416 3.014616 -4.860705 19.100002 5.846795 -0.641804 -1.854998 -11.620691 30.046555 -0.020722 -18.534634 -34.670961 -0.338900 -3.741200 10.349600 -0.953021 3.219063 -3.952236 0.320115 3.526778 -0.876594 1.646119 1.926956 7.967070 5.290040 15.017978 -8.481341 1.780878 20.596412 13.967672 -1.179700 10.091800 13.171100 -7.737642 -2.592202 -0.018069 -76.166223 -7.304402 14.858523 3.518458 -16.045602 -1.404245 -0.672581 -1.179600 0.921547 7.361679 18.570847 2.723100 -7.125000 0.000000 0.000000 -19.773400 48.851300 -1.947900 12.167901 2.329793 -0.700816 68.441806 -2.480308 15.865904 -9.351669 21.673395 -3.166307 1.283490 0.972844 -2.494239 -7.772729 -26.894446 4.255900 7.125000 0.000000 0.000000 23.132700 -56.467200 -6.755900 
